<svg id="Layer_1" data-name="Layer 1" xmlns="http://www.w3.org/2000/svg" viewBox="0 0 190.28 57.31"><defs><style>.cls-1,.cls-2{fill:none;stroke:#000;stroke-miterlimit:10;stroke-width:2px;}.cls-1{stroke-linecap:square;}</style></defs><title>illumnati-chat</title><path class="cls-1" d="M11.57,28.3s19.72-16,40.43,0" transform="translate(-2.35 -2.66)"/><path d="M26.17,22.09a6.86,6.86,0,1,0,12.25-.49A31,31,0,0,0,26.17,22.09Z" transform="translate(-2.35 -2.66)"/><line class="cls-2" x1="180" y1="7.8" x2="170.41" y2="15.05"/><line class="cls-2" x1="189.94" y1="15.39" x2="173.2" y2="21.46"/><line class="cls-2" x1="189.99" y1="29.14" x2="174.92" y2="28.17"/><line class="cls-2" x1="120.29" y1="8.05" x2="129.94" y2="15.22"/><line class="cls-2" x1="110.41" y1="15.71" x2="127.2" y2="21.65"/><line class="cls-2" x1="110.47" y1="29.46" x2="125.53" y2="28.37"/><path class="cls-2" d="M45,31.84c-1.34.87-14.65,7.75-26.46,0" transform="translate(-2.35 -2.66)"/><line class="cls-2" x1="20.95" y1="30.63" x2="17.65" y2="37.34"/><line class="cls-2" x1="38.21" y1="30.63" x2="41.65" y2="37.34"/><line class="cls-2" x1="29.44" y1="33" x2="29.44" y2="40.99"/><path class="cls-2" d="M43.75,23.49l-11.56-19L19.56,23.82" transform="translate(-2.35 -2.66)"/><polyline class="cls-2" points="14.27 25.64 1.86 44.59 29.65 44.34 29.65 55.34 44.58 44.4 55.77 44.4 44.33 25.64"/></svg>